<svg xmlns="http://www.w3.org/2000/svg" viewBox="0 0 532.46 147.27"><g id="SVGs"><g id="LOGO_PRINCIPAL_H_-_N" data-name="LOGO PRINCIPAL H - N"><g id="NOMBRE_PRINCIPAL" data-name="NOMBRE PRINCIPAL"><path id="A" d="M304,101.28,274.51,49.84a1.53,1.53,0,0,0-1.31-.67,1.71,1.71,0,0,0-1.4.67l-29.49,51.44c-.28.52,0,.89.75.89h9.24a2,2,0,0,0,1.68-.89l2.61-4.56a3.43,3.43,0,0,1,.57-.7l6.23-11a2.17,2.17,0,0,1,.2-.5l8.49-14.63c.38-.6.75-.89,1.12-.89s.75.29,1.12.89l5.5,9.58,2.9,5a1.74,1.74,0,0,1,.11.25l6.45,11.36a3.28,3.28,0,0,1,.44.56l2.61,4.56a2.07,2.07,0,0,0,1.78.89h9.14C304,102.17,304.28,101.8,304,101.28Z"/><path id="I" d="M316.13,49.91h8.77c.74,0,1.21.38,1.21,1V101.2c0,.6-.47,1-1.21,1h-8.77c-.75,0-1.22-.37-1.22-1V50.88C314.91,50.29,315.38,49.91,316.13,49.91Z"/><path id="D" d="M341.51,49.91H357c2.52,0,4.29,0,5.32.08C382.75,51.11,393,63.58,393,76s-10.27,24.56-30.7,26.06c-1,.07-2.8.07-5.32.07H341.51c-.75,0-1.22-.37-1.22-1V50.88C340.29,50.29,340.76,49.91,341.51,49.91Zm10,41.74c0,1.26,1,2.09,2.61,2.09h2.43c2.71,0,4.29,0,5.32-.08,26.78-2.09,26-35.38-2.71-35.38h-5c-1.58,0-2.61.82-2.61,2.09Z"/><path id="E" d="M405.71,50.88c0-.59.46-1,1.21-1h39.85c.74,0,1.21.38,1.21,1V57.3c0,.6-.47,1-1.21,1H419.52c-1.59,0-2.62.82-2.62,2.09v9.4c0,1.27,1,2.09,2.62,2.09h20.53c.74,0,1.21.38,1.21,1v6.42c0,.6-.47,1-1.21,1H419.52c-1.59,0-2.62.82-2.62,2.09v9.41c0,1.27,1,2.09,2.62,2.09h27.25c.74,0,1.21.37,1.21,1v6.42c0,.6-.47,1-1.21,1H406.92c-.75,0-1.21-.37-1.21-1Z"/><path id="N" d="M512.37,49.91H496.15c-.58,0-1,.91-1,2v4.22c0,1.11.46,2,1,2h6.23v22.5c0,.75-.28,1.12-.65,1.12a1.71,1.71,0,0,1-1.12-.52L464.87,50.59a3.51,3.51,0,0,0-2-.68h-1.4c-.75,0-1.22.38-1.22,1V101.2c0,.6.47,1,1.22,1h8.77c.75,0,1.21-.37,1.21-1V71.27c0-.75.28-1.12.66-1.12a1.54,1.54,0,0,1,1.12.52L509,101.43a3.18,3.18,0,0,0,2.05.74h1.31c.74,0,1.21-.37,1.21-1V50.88C513.58,50.29,513.11,49.91,512.37,49.91Z"/></g><path id="ICONO" d="M21.17,66.55C25.6,55.23,36.79,47.68,49.72,47.33c8.75-.24,23.14,2.48,42.14,16.77l-3.89,4c-12-9.46-22.38-14-31.79-13.7C38.42,54.85,34.94,71,36,81c.46,4.47,3.06,19,17.51,18.64,29.9-1,58.82-75.45,123.76-77.22,10-.28,21,1.57,27.71,4.81,22.95,11.13,34.54,31.9,34.67,49.33,0,26.09-21.88,46.37-50.91,47.16-21.14.58-46.92-11.21-76.69-35,1.46-1.28,2.92-2.6,4.33-3.92,14.14,11.47,40.31,28.2,60.64,31.56a36.07,36.07,0,0,0,19.31-1.79c21.5-8.79,24.84-42.84,12.41-63.52-6.09-10.11-15.31-16-26.61-17l-.49,0c-22.33-.65-37.95,15.46-56,34.1-18.72,19.3-39.94,41.17-69.24,42a38.66,38.66,0,0,1-18.49-3.91C22.51,98.41,15.34,81.44,21.17,66.55Z"/></g></g></svg>