<svg xmlns="http://www.w3.org/2000/svg" width="1200" height="720" viewBox="0 0 1200 720" style="background:#0b0c10">

    <style>
      .t{fill:#e8eef6;font-family:Inter,Segoe UI,Arial,sans-serif}
      .h{font-size:28px;font-weight:700}
      .s{font-size:16px;opacity:.95}
      .b{fill:#111827;stroke:#3b82f6;stroke-width:1.5}
    </style>
    
<text x="50%" y="55" text-anchor="middle" class="t h">AIDEN API Azul Dark — Guía de Integración (resumen)</text>
<text x="50%" y="85" text-anchor="middle" class="t s">Autentica → Envía prompt → Recibe stream → Callbacks</text>
<rect x="80" y="160" width="260" height="92" rx="14" class="b"/>
<text x="100" y="212" class="t s">Registra App (Console)</text>
<rect x="380" y="160" width="260" height="92" rx="14" class="b"/>
<text x="400" y="212" class="t s">Crea API Key</text>
<rect x="680" y="160" width="260" height="92" rx="14" class="b"/>
<text x="700" y="212" class="t s">Configura entorno</text>
<rect x="80" y="282" width="260" height="92" rx="14" class="b"/>
<text x="100" y="334" class="t s">SDK/REST: /v1/chat</text>
<rect x="380" y="282" width="260" height="92" rx="14" class="b"/>
<text x="400" y="334" class="t s">Streaming SSE/WebSocket</text>
<rect x="680" y="282" width="260" height="92" rx="14" class="b"/>
<text x="700" y="334" class="t s">Callbacks Webhooks</text>
<rect x="80" y="404" width="260" height="92" rx="14" class="b"/>
<text x="100" y="456" class="t s">Errores estandarizados</text>
<rect x="380" y="404" width="260" height="92" rx="14" class="b"/>
<text x="400" y="456" class="t s">Retries exponenciales</text>
<rect x="680" y="404" width="260" height="92" rx="14" class="b"/>
<text x="700" y="456" class="t s">Observabilidad</text>
<rect x="80" y="526" width="260" height="92" rx="14" class="b"/>
<text x="100" y="578" class="t s">Pruebas sandbox</text>
<rect x="380" y="526" width="260" height="92" rx="14" class="b"/>
<text x="400" y="578" class="t s">Promover a producción</text>
<rect x="680" y="526" width="260" height="92" rx="14" class="b"/>
<text x="700" y="578" class="t s">Monitoreo costo/uso</text>
</svg>