<svg xmlns="http://www.w3.org/2000/svg" width="1200" height="720" viewBox="0 0 1200 720" style="background:#0b0c10">

    <style>
      .t{fill:#e8eef6;font-family:Inter,Segoe UI,Arial,sans-serif}
      .h{font-size:28px;font-weight:700}
      .s{font-size:16px;opacity:.95}
      .b{fill:#111827;stroke:#3b82f6;stroke-width:1.5}
    </style>
    
<text x="50%" y="55" text-anchor="middle" class="t h">AIDEN API Azul Dark — Hoja de ruta 2025–2030 (resumen)</text>
<text x="50%" y="85" text-anchor="middle" class="t s">Desarrollo → Beta/Go‑to‑Market → Escalamiento → Consolidación</text>
<rect x="80" y="160" width="260" height="92" rx="14" class="b"/>
<text x="100" y="212" class="t s">2025: MVP/API Core</text>
<rect x="380" y="160" width="260" height="92" rx="14" class="b"/>
<text x="400" y="212" class="t s">2026: Estabilidad + SDKs</text>
<rect x="680" y="160" width="260" height="92" rx="14" class="b"/>
<text x="700" y="212" class="t s">2027H1: Beta Partners</text>
<rect x="80" y="282" width="260" height="92" rx="14" class="b"/>
<text x="100" y="334" class="t s">2027H2: Monetización</text>
<rect x="380" y="282" width="260" height="92" rx="14" class="b"/>
<text x="400" y="334" class="t s">2028: Expansión LATAM/US/EU</text>
<rect x="680" y="282" width="260" height="92" rx="14" class="b"/>
<text x="700" y="334" class="t s">2029: +Verticales</text>
<rect x="80" y="404" width="260" height="92" rx="14" class="b"/>
<text x="100" y="456" class="t s">2030: Consolidación</text>
<rect x="380" y="404" width="260" height="92" rx="14" class="b"/>
<text x="400" y="456" class="t s">Certificaciones</text>
<rect x="680" y="404" width="260" height="92" rx="14" class="b"/>
<text x="700" y="456" class="t s">Ecosistema Dev</text>
<rect x="80" y="526" width="260" height="92" rx="14" class="b"/>
<text x="100" y="578" class="t s">Marketplace</text>
<rect x="380" y="526" width="260" height="92" rx="14" class="b"/>
<text x="400" y="578" class="t s">Edge/On‑prem opc.</text>
<rect x="680" y="526" width="260" height="92" rx="14" class="b"/>
<text x="700" y="578" class="t s">Nuevos modelos</text>
</svg>